<svg xmlns="http://www.w3.org/2000/svg" width="31.495" height="28.125" viewBox="0 0 31.495 28.125">
  <g id="Icon_ionic-ios-heart-dislike" data-name="Icon ionic-ios-heart-dislike" transform="translate(-2.255 -3.938)">
    <path id="Path_1" data-name="Path 1" d="M29.8,30.009,3.959,4.577A1,1,0,0,0,2.545,5.991l25.84,25.432a.991.991,0,0,0,.963.253.974.974,0,0,0,.45-.26A.985.985,0,0,0,29.8,30.009Z" fill="rgba(255,255,255,0.5)"/>
    <g id="Group_1" data-name="Group 1">
      <path id="Path_2" data-name="Path 2" d="M4.5,11.883a16.973,16.973,0,0,0,3.291,9.33C12.023,27,19.125,32.063,19.125,32.063s2.06-1.427,4.62-3.628L4.781,9.773A8.036,8.036,0,0,0,4.5,11.883Z" fill="rgba(255,255,255,0.5)"/>
      <path id="Path_3" data-name="Path 3" d="M30.53,21.213a16.834,16.834,0,0,0,3.22-9.33,7.949,7.949,0,0,0-7.875-7.945H25.8a8,8,0,0,0-6.68,3.656,8,8,0,0,0-6.68-3.656h-.07A7.938,7.938,0,0,0,7.052,6.047l19.821,19.5A35.123,35.123,0,0,0,30.53,21.213Z" fill="rgba(255,255,255,0.5)"/>
    </g>
  </g>
</svg>
